<?xml version="1.0" encoding="utf-8"?>
<!-- Generator: Adobe Illustrator 27.4.1, SVG Export Plug-In . SVG Version: 6.00 Build 0)  -->
<svg version="1.1" id="Calque_1" xmlns="http://www.w3.org/2000/svg" xmlns:xlink="http://www.w3.org/1999/xlink" x="0px" y="0px"
	 viewBox="0 0 1366 768" style="enable-background:new 0 0 1366 768;" xml:space="preserve">
<style type="text/css">
	.st0{fill:#1E40AF;stroke:#FFFFFF;stroke-width:9;stroke-miterlimit:10;}
	.st1{fill:#FFFFFF;stroke:#FFFFFF;stroke-width:10;stroke-miterlimit:10;}
	.st2{fill:#FFFFFF;stroke:#0000FF;stroke-width:2;stroke-miterlimit:10;}
	.st3{fill:#FFFFFF;stroke:#1E40AF;stroke-width:5;stroke-miterlimit:10;}
	.st4{fill:#1E40AF;stroke:#1E40AF;stroke-miterlimit:10;}
	.st5{fill:#1E40AF;}
	.st6{fill:#FFFFFF;}
	.st7{fill:#FFFFFF;stroke:#1E40AF;stroke-width:3;stroke-miterlimit:10;}
</style>
<polygon class="st0" points="46.1,100.02 96.95,650.15 461.26,734.59 715.01,663.98 1037.25,734.59 1336.5,592.91 1186.21,107.99 
	906.61,150.94 575.67,70.92 288.27,141.52 42.13,61 "/>
<line class="st1" x1="288.27" y1="143.55" x2="461.26" y2="736.61"/>
<line class="st1" x1="575.67" y1="72.94" x2="715.01" y2="666.01"/>
<line class="st1" x1="906.61" y1="152.96" x2="1037.25" y2="736.61"/>
<circle class="st2" cx="1122.12" cy="334.03" r="15.67"/>
<rect x="26" y="275.47" class="st3" width="1298.5" height="217.03"/>
<g>
	<path class="st4" d="M156.33,401.41h-38.78v48.13H82V320.97h86.01v30.61h-50.45v20.91h38.78V401.41z"/>
	<path class="st4" d="M225.03,320.97v128.57h-36.51V320.97H225.03z"/>
	<path class="st4" d="M356.39,449.54h-29.71l-32.58-56.81c-4.18-7.29-8.4-16.13-12.65-26.55c1.92,8.29,2.88,15.32,2.88,21.1v62.26
		h-29.63V320.97h34.51l27.71,47.1c5.52,9.35,9.7,17.58,12.55,24.68c-1.86-10.99-2.79-22.23-2.79-33.72v-38.05h29.71V449.54z"/>
	<path class="st4" d="M386.05,449.54V320.97h46.01c19.98,0,34.94,6.4,44.88,19.21s14.9,27.63,14.9,44.46
		c0,19.21-5.33,34.84-15.99,46.86c-10.66,12.02-24.5,18.04-41.52,18.04H386.05z M422.56,419.96h9.5c6.04,0,11.14-3.17,15.29-9.51
		c4.15-6.34,6.23-14.98,6.23-25.9c0-9.35-1.85-17.43-5.53-24.21c-3.69-6.78-9.02-10.17-15.99-10.17h-9.5V419.96z"/>
	<path class="st4" d="M683.66,320.97v128.57h-33.9v-91.93l-22,91.93h-23.18l-22.87-91.93v91.93h-27.36V320.97h47.71l17.25,68.29
		l16.47-68.29H683.66z"/>
	<path class="st4" d="M812.07,320.97l-37.23,74.13v54.44h-35.47V395.1l-40.02-74.13h39.95l20.85,42.38l19.99-42.38H812.07z"/>
	<path class="st4" d="M857.25,412.33l33.9-6.59c2.85,10.36,10.16,15.54,21.96,15.54c9.18,0,13.77-2.64,13.77-7.91
		c0-2.76-1.06-4.91-3.18-6.45c-2.12-1.54-5.91-2.9-11.37-4.09c-20.86-4.32-34.25-9.97-40.17-16.94c-5.93-6.97-8.89-15.17-8.89-24.59
		c0-12.12,4.25-22.2,12.77-30.24c8.51-8.04,20.75-12.06,36.73-12.06c24.22,0,40.23,10.52,48.01,31.55l-30.24,9.89
		c-3.14-8.6-9.5-12.9-19.08-12.9c-7.96,0-11.94,2.67-11.94,8.01c0,2.39,0.9,4.24,2.7,5.56c1.8,1.32,5.29,2.57,10.46,3.76
		c14.23,3.25,24.34,6.13,30.33,8.63c5.99,2.51,10.98,6.79,14.99,12.85c4.01,6.07,6.01,13.22,6.01,21.45
		c0,13.01-4.88,23.55-14.64,31.62c-9.76,8.08-22.57,12.11-38.43,12.11C881.94,451.52,864.05,438.46,857.25,412.33z"/>
	<path class="st4" d="M1023.9,399.82v46.72h-37.03V317.97h50.8c12.66,0,22.29,1.57,28.89,4.71c6.59,3.14,11.82,7.95,15.69,14.41
		c3.86,6.47,5.79,13.72,5.79,21.76c0,12.24-3.95,22.13-11.85,29.67c-7.9,7.54-18.45,11.3-31.63,11.3H1023.9z M1023.37,367.4h11.28
		c9.93,0,14.9-3.43,14.9-10.29c0-6.46-4.59-9.68-13.77-9.68h-12.4V367.4z"/>
	<path class="st4" d="M1247.81,356.89v97.77h-34.59v-97.77l-56.5,0.18l-6.15-30.74l121.9-0.24v30.8H1247.81z"/>
</g>
<g>
	<path class="st5" d="M1136.7,467.6c-10.05-6.53-23.42-25.2-34.91-48.72c-11.84-24.25-18.91-47.85-18.91-63.15
		c0-32.16,23.05-55.51,54.8-55.51c31.89,0,55.04,23.34,55.04,55.51c0,15.33-6.97,38.93-18.65,63.14
		c-11.36,23.55-24.64,42.22-34.66,48.73l-1.36,0.89L1136.7,467.6z"/>
	<path class="st6" d="M1137.68,302.72c28.95,0,52.54,20.58,52.54,53.01s-31.67,96.45-52.17,109.77
		c-20.49-13.32-52.68-77.35-52.68-109.77S1108.73,302.72,1137.68,302.72 M1137.68,297.72c-15.67,0-30.05,5.6-40.5,15.76
		c-11,10.7-16.81,25.3-16.81,42.24c0,15.65,7.16,39.67,19.16,64.24c11.85,24.27,25.23,42.86,35.79,49.72l2.72,1.77l2.72-1.77
		c10.54-6.85,23.82-25.44,35.55-49.74c11.83-24.53,18.89-48.54,18.89-64.22C1195.22,322.12,1171.02,297.72,1137.68,297.72
		L1137.68,297.72z"/>
</g>
<circle class="st7" cx="1138.18" cy="353.01" r="39.89"/>
</svg>
